<?xml version="1.0" standalone="no"?>
<!DOCTYPE svg PUBLIC "-//W3C//DTD SVG 20010904//EN"
 "http://www.w3.org/TR/2001/REC-SVG-20010904/DTD/svg10.dtd">
<svg version="1.0" xmlns="http://www.w3.org/2000/svg"
 width="345.000000pt" height="342.000000pt" viewBox="0 0 345.000000 342.000000"
 preserveAspectRatio="xMidYMid meet">
<metadata>
Created by potrace 1.10, written by Peter Selinger 2001-2011
</metadata>
<g transform="translate(0.000000,342.000000) scale(0.100000,-0.100000)"
fill="#000000" stroke="none">
<path d="M1742 3078 l3 -333 83 -3 c79 -3 82 -4 77 -25 -2 -12 -16 -89 -30
-172 -15 -82 -33 -185 -41 -228 -9 -43 -13 -84 -11 -91 3 -8 23 -17 44 -21 59
-11 167 -72 222 -126 28 -27 53 -49 56 -49 5 0 138 102 342 262 l62 49 34 -54
c57 -88 108 -190 100 -198 -5 -4 -111 -48 -238 -98 -142 -56 -229 -95 -227
-102 2 -7 10 -37 18 -68 18 -71 18 -152 -1 -224 -8 -32 -15 -59 -15 -61 0 -1
104 -49 230 -106 127 -57 229 -109 228 -115 -6 -21 -123 -225 -130 -225 -6 0
-322 248 -380 298 -16 13 -23 10 -74 -41 -57 -58 -166 -121 -230 -133 l-35 -6
7 -57 c3 -31 16 -145 28 -254 l21 -197 -62 0 -63 0 0 -346 0 -347 93 8 c238
18 431 72 648 180 475 236 823 710 909 1237 39 238 21 537 -44 754 -173 577
-629 1020 -1205 1170 -101 26 -292 54 -372 54 l-49 0 2 -332z m319 142 c291
-62 536 -197 755 -415 104 -103 224 -251 224 -276 0 -7 -93 -79 -103 -79 -2 0
-23 31 -45 68 -23 38 -55 84 -72 102 l-30 32 -54 -45 -53 -46 -44 45 c-113
116 -306 239 -472 300 -72 27 -77 30 -73 54 3 14 8 41 12 61 l6 37 -124 22
c-154 27 -146 24 -142 52 2 13 6 45 9 72 l7 48 56 -7 c31 -3 96 -15 143 -25z
m1087 -888 c176 -395 173 -871 -8 -1259 -21 -46 -41 -83 -43 -83 -14 0 -117
44 -117 49 0 4 20 57 45 119 25 61 45 116 45 122 0 5 -26 17 -57 26 -32 9 -59
17 -60 18 -2 2 9 52 22 112 22 92 26 134 26 269 0 109 -5 183 -15 233 -9 41
-14 78 -11 82 3 5 28 16 55 25 27 9 53 21 56 27 3 5 -13 66 -36 135 -30 89
-39 128 -32 135 12 12 83 56 93 57 4 1 20 -30 37 -67z m-174 -1438 c46 -37 46
-37 30 -63 -71 -110 -224 -266 -364 -371 -212 -159 -538 -280 -760 -284 l-75
-1 -6 70 c-4 39 -5 71 -4 73 1 1 57 13 125 27 67 13 124 26 127 29 4 3 -1 25
-10 48 -9 23 -16 43 -14 44 1 1 51 18 111 38 175 58 337 154 470 276 l42 39
45 -39 c24 -22 47 -39 51 -40 3 0 43 43 89 95 45 52 85 95 89 95 4 0 28 -16
54 -36z"/>
<path d="M1545 3247 c-72 -73 -150 -153 -174 -179 l-43 -46 26 -34 c14 -19 35
-55 46 -81 24 -55 39 -177 21 -177 -6 0 -11 3 -11 8 0 4 -36 45 -80 92 l-80
85 -49 -52 c-27 -29 -66 -73 -86 -98 l-37 -45 79 -84 c329 -347 428 -683 280
-946 -69 -124 -209 -225 -344 -251 -167 -31 -354 76 -441 253 -55 112 -66 175
-66 353 0 320 67 551 234 804 110 168 191 257 395 439 l70 62 -51 -15 c-423
-123 -805 -446 -1014 -856 -127 -249 -182 -481 -182 -769 0 -292 56 -523 187
-779 269 -522 779 -861 1378 -916 l77 -7 0 1686 c0 927 -1 1686 -3 1686 -2 0
-61 -60 -132 -133z"/>
</g>
</svg>
