<?xml version="1.0" standalone="no"?>
<!DOCTYPE svg PUBLIC "-//W3C//DTD SVG 20010904//EN"
 "http://www.w3.org/TR/2001/REC-SVG-20010904/DTD/svg10.dtd">
<svg version="1.0" xmlns="http://www.w3.org/2000/svg"
 width="394.000000pt" height="450.000000pt" viewBox="0 0 394.000000 450.000000"
 preserveAspectRatio="xMidYMid meet">
<metadata>
Created by potrace 1.10, written by Peter Selinger 2001-2011
</metadata>
<g transform="translate(0.000000,450.000000) scale(0.100000,-0.100000)"
fill="#000000" stroke="none">
<path d="M877 4406 c-98 -37 -149 -97 -155 -187 -11 -145 86 -239 243 -238 72
1 113 11 154 41 l24 17 -42 50 c-42 50 -43 50 -68 34 -14 -9 -45 -16 -70 -16
-40 0 -50 4 -76 33 -24 27 -28 39 -23 69 11 71 93 104 165 66 28 -14 30 -14
71 31 46 50 44 61 -13 91 -42 21 -163 27 -210 9z"/>
<path d="M1167 4403 c-4 -3 -7 -100 -7 -215 l0 -208 75 0 75 0 0 75 0 75 55 0
55 0 0 -75 0 -75 70 0 70 0 0 215 0 215 -70 0 -69 0 -3 -72 -3 -73 -52 -3 -53
-3 0 75 0 76 -68 0 c-38 0 -72 -3 -75 -7z"/>
<path d="M1694 4386 c-75 -35 -114 -101 -114 -194 0 -141 89 -222 245 -222
132 0 211 49 245 151 l17 53 6 -40 c9 -56 44 -104 97 -134 50 -28 38 -27 443
-22 l229 2 29 29 c51 51 33 136 -45 210 -53 52 -48 61 34 61 l70 0 0 -47 c1
-27 2 -93 3 -148 l2 -100 208 -3 208 -2 -3 62 -3 63 -132 3 c-124 2 -133 4
-133 22 0 17 9 19 73 22 l72 3 3 37 3 37 -73 3 c-67 3 -73 5 -76 26 -3 22 -2
22 112 22 l116 0 0 65 0 65 -330 0 -331 0 -24 -25 c-51 -50 -24 -159 59 -234
14 -14 26 -28 26 -33 0 -4 -33 -8 -73 -8 l-73 0 0 78 c-1 108 -38 170 -126
206 -44 19 -179 21 -229 5 -76 -26 -137 -100 -139 -169 -1 -18 -7 -10 -19 27
-26 75 -48 101 -116 133 -61 30 -193 28 -261 -4z m196 -114 c18 -14 24 -32 28
-75 4 -50 2 -58 -21 -81 -36 -36 -98 -36 -132 -1 -20 19 -25 34 -25 75 0 41 5
56 25 75 30 31 92 34 125 7z m510 -2 c39 -39 39 -130 -1 -162 -31 -26 -103
-24 -127 3 -39 41 -36 127 6 159 33 27 95 27 122 0z"/>
<path d="M2070 3580 l0 -310 80 0 c48 0 80 -4 80 -10 0 -6 -18 -112 -40 -235
-22 -123 -40 -230 -40 -238 0 -8 21 -19 49 -26 62 -16 153 -70 206 -122 23
-21 44 -39 49 -39 4 0 86 61 182 135 95 75 180 138 188 141 10 4 33 -25 76
-98 33 -56 59 -109 58 -116 -2 -8 -99 -52 -218 -99 -118 -46 -216 -85 -218
-87 -2 -2 4 -31 12 -64 20 -75 20 -151 2 -222 -8 -30 -13 -56 -12 -58 2 -1 97
-45 212 -96 115 -52 210 -100 212 -106 5 -14 -106 -210 -119 -210 -5 0 -91 65
-191 145 l-181 146 -28 -34 c-39 -48 -126 -105 -200 -132 l-64 -23 3 -59 c2
-52 23 -259 38 -370 l5 -43 -60 0 -61 0 0 -325 0 -326 78 6 c572 47 1057 363
1311 854 121 236 170 424 178 691 6 193 -10 328 -61 502 -135 462 -507 862
-966 1037 -138 53 -378 101 -504 101 l-56 0 0 -310z m297 134 c302 -62 605
-242 801 -476 76 -91 122 -157 122 -173 -1 -9 -83 -75 -94 -75 -2 0 -19 26
-37 57 -18 32 -48 74 -67 95 l-35 38 -43 -40 c-24 -22 -47 -40 -52 -40 -4 0
-21 14 -38 31 -100 105 -271 216 -422 275 -53 21 -98 39 -100 40 -1 0 3 25 9
53 6 29 9 54 6 57 -2 3 -58 15 -123 28 l-119 23 4 59 c1 32 5 63 8 68 6 9 73
2 180 -20z m1031 -842 c38 -86 76 -211 99 -327 26 -134 23 -387 -5 -521 -38
-177 -129 -412 -155 -401 -80 32 -97 41 -97 51 0 7 18 57 40 112 22 54 38 104
36 110 -2 6 -28 17 -56 24 -49 12 -52 14 -46 39 3 14 13 55 21 91 23 96 30
298 15 405 -20 143 -22 135 38 158 28 11 52 25 52 31 0 6 -18 62 -41 125 -31
89 -37 116 -27 122 7 5 27 17 43 28 17 11 35 20 41 20 6 1 25 -30 42 -67z
m-168 -1341 l45 -38 -58 -76 c-176 -230 -425 -405 -709 -498 -126 -42 -351
-81 -367 -64 -5 6 -11 39 -13 75 l-3 64 119 23 c66 13 121 25 123 26 2 2 -4
20 -12 40 -19 46 -19 57 1 57 31 0 170 53 257 98 97 49 184 110 259 180 l48
45 44 -37 c24 -20 48 -36 53 -35 4 0 42 40 83 89 41 49 77 89 80 89 3 1 25
-16 50 -38z"/>
<path d="M1846 3695 l-158 -165 32 -50 c38 -60 60 -127 60 -187 l0 -44 -81 85
c-45 47 -84 86 -89 86 -4 0 -41 -39 -83 -87 l-76 -86 76 -81 c109 -118 181
-217 239 -332 66 -129 88 -223 82 -350 -4 -80 -10 -103 -41 -169 -48 -99 -135
-188 -232 -236 -64 -31 -77 -34 -165 -34 -85 0 -101 3 -155 29 -79 39 -165
127 -204 209 -46 96 -61 174 -61 324 0 244 37 411 135 608 100 202 223 352
458 564 27 23 47 45 44 47 -7 8 -179 -57 -262 -98 -719 -360 -1061 -1177 -810
-1934 156 -469 537 -850 1006 -1007 120 -41 283 -74 384 -79 l70 -3 3 1578 c1
867 -1 1577 -6 1577 -4 0 -79 -74 -166 -165z"/>
<path d="M830 546 l0 -65 47 -3 46 -3 46 -145 47 -145 74 0 74 0 19 78 c11 43
23 75 27 70 4 -4 17 -41 29 -81 l22 -72 73 0 73 0 18 83 c27 121 34 124 35 14
l0 -98 73 3 72 3 0 210 0 210 -120 0 -119 0 -13 -65 c-20 -101 -23 -102 -53
-15 l-27 80 -68 0 -69 0 -20 -77 c-11 -43 -23 -78 -27 -78 -5 0 -18 35 -31 78
l-24 77 -102 3 -102 3 0 -65z"/>
<path d="M1677 590 c-57 -45 -44 -129 34 -214 26 -29 46 -56 42 -60 -3 -3 -35
-6 -70 -6 l-63 0 0 -65 0 -65 125 0 c141 0 174 10 195 59 22 54 -5 124 -74
190 -20 19 -36 39 -36 43 0 4 34 8 75 8 l75 0 0 -150 0 -150 395 0 395 0 0 65
0 65 -115 0 -115 0 0 150 0 151 -72 -3 -73 -3 -3 -147 -3 -148 -129 0 -130 0
0 25 c0 24 2 25 70 25 l70 0 0 40 0 40 -70 0 c-63 0 -70 2 -70 20 0 18 8 20
113 22 l112 3 3 63 3 62 -329 0 c-316 0 -330 -1 -355 -20z"/>
<path d="M2835 470 l95 -141 0 -74 0 -75 70 0 70 0 0 78 0 78 90 131 c50 72
90 134 90 137 0 3 -38 6 -84 6 l-84 0 -38 -60 c-22 -33 -42 -60 -45 -60 -4 0
-24 27 -45 60 l-39 60 -88 0 -88 0 96 -140z"/>
</g>
</svg>
