<?xml version="1.0" standalone="no"?>
<!DOCTYPE svg PUBLIC "-//W3C//DTD SVG 20010904//EN"
 "http://www.w3.org/TR/2001/REC-SVG-20010904/DTD/svg10.dtd">
<svg version="1.0" xmlns="http://www.w3.org/2000/svg"
 width="300.000000pt" height="300.000000pt" viewBox="0 0 300.000000 300.000000"
 preserveAspectRatio="xMidYMid meet">
<metadata>
Created by potrace 1.10, written by Peter Selinger 2001-2011
</metadata>
<g transform="translate(0.000000,300.000000) scale(0.100000,-0.100000)"
fill="#000000" stroke="none">
<path d="M1300 2986 c-353 -52 -638 -199 -886 -459 -371 -388 -501 -932 -349
-1462 34 -120 137 -329 216 -439 378 -529 1059 -751 1682 -550 528 171 913
614 1014 1169 23 124 23 388 0 515 -56 306 -196 571 -421 796 -224 223 -470
355 -773 414 -139 27 -355 34 -483 16z m140 -220 c0 -91 -3 -96 -61 -96 -27 0
-169 -28 -177 -35 -2 -2 4 -30 12 -63 9 -33 16 -64 16 -69 0 -6 -19 -16 -42
-22 -116 -35 -273 -125 -356 -204 l-42 -41 -51 50 -51 51 -52 -56 c-41 -44
-96 -112 -122 -149 -5 -7 -144 73 -144 82 0 6 31 51 70 102 222 292 552 481
912 523 40 5 76 9 81 10 4 0 7 -37 7 -83z m324 47 c249 -48 474 -165 662 -346
96 -91 218 -242 209 -256 -4 -7 -122 -81 -129 -81 -1 0 -17 21 -34 48 -17 26
-55 73 -84 104 l-53 56 -59 -53 -60 -54 -47 44 c-83 78 -233 164 -339 196 -22
7 -40 16 -40 22 0 5 7 36 16 70 13 49 13 61 2 68 -19 12 -142 39 -177 39 -58
0 -61 5 -61 92 l0 79 58 -6 c31 -3 93 -13 136 -22z m-91 -430 c4 -7 -59 -352
-78 -430 -4 -17 -1 -23 12 -23 31 0 139 -56 180 -93 l39 -36 173 150 c96 82
177 149 181 149 8 0 170 -275 170 -288 0 -5 -96 -46 -212 -93 -204 -82 -213
-86 -208 -110 3 -13 5 -72 4 -130 l0 -106 213 -73 c118 -40 215 -76 218 -79 5
-10 -153 -296 -164 -296 -5 0 -89 62 -185 138 -96 75 -179 137 -184 137 -4 0
-21 -14 -38 -31 -36 -38 -96 -73 -151 -90 -24 -7 -43 -15 -43 -18 0 -3 18
-103 40 -221 22 -118 40 -216 40 -217 0 -2 -79 -3 -175 -3 -119 0 -175 3 -175
11 0 6 16 105 35 221 20 116 34 212 33 213 -2 1 -27 10 -55 19 -29 10 -80 37
-113 62 l-59 43 -172 -144 c-95 -80 -174 -144 -175 -142 -7 8 -165 281 -167
289 -1 5 92 45 206 88 115 43 210 80 212 82 3 2 0 22 -7 44 -6 23 -8 77 -5
130 l5 90 -214 79 c-118 43 -214 80 -214 83 0 9 161 292 169 296 4 3 84 -60
179 -140 94 -79 174 -144 178 -144 4 0 24 16 45 35 41 37 92 65 152 84 20 7
37 14 37 17 0 2 -16 101 -35 220 -19 118 -35 220 -35 225 0 11 337 13 343 2z
m-1304 -334 c39 -22 71 -45 71 -51 0 -5 -5 -19 -11 -31 -7 -11 -22 -53 -34
-93 l-23 -73 65 -22 64 -21 -8 -46 c-11 -62 -10 -363 0 -429 7 -39 6 -53 -3
-53 -7 0 -36 -7 -65 -15 l-53 -16 18 -60 c10 -32 32 -88 48 -124 l31 -64 -73
-41 c-41 -22 -76 -40 -80 -40 -10 0 -52 91 -85 183 -95 269 -101 578 -16 845
26 81 71 192 79 192 2 0 36 -18 75 -41z m2375 -50 c134 -347 123 -728 -30
-1069 l-27 -60 -56 31 c-31 17 -60 35 -65 39 -5 5 7 47 27 97 19 48 39 105 45
125 l10 38 -75 22 -75 22 9 45 c9 50 11 336 3 415 l-5 49 72 24 71 24 -9 34
c-5 18 -23 66 -39 106 -17 40 -29 73 -28 74 14 12 125 63 133 61 6 -1 23 -36
39 -77z m-2162 -1231 c25 -35 57 -73 71 -86 l24 -23 51 52 51 52 47 -41 c93
-83 215 -152 339 -192 39 -13 71 -24 73 -26 2 -1 -6 -34 -18 -74 -12 -40 -20
-74 -18 -76 3 -2 56 -12 119 -22 l114 -18 0 -79 0 -79 -50 2 c-78 5 -235 39
-332 73 -235 83 -445 231 -594 419 -35 45 -65 85 -67 90 -3 7 124 90 139 90 3
0 26 -28 51 -62z m2027 -14 c9 -8 -113 -155 -188 -227 -213 -204 -486 -331
-778 -365 l-73 -8 0 83 0 83 29 0 c44 0 205 30 215 40 5 5 2 36 -8 74 -21 84
-21 82 15 90 84 16 273 126 370 213 l36 33 24 -26 c13 -14 41 -39 61 -55 l36
-29 67 84 67 84 62 -35 c33 -19 63 -37 65 -39z"/>
</g>
</svg>
