<?xml version="1.0" standalone="no"?>
<!DOCTYPE svg PUBLIC "-//W3C//DTD SVG 20010904//EN"
 "http://www.w3.org/TR/2001/REC-SVG-20010904/DTD/svg10.dtd">
<svg version="1.0" xmlns="http://www.w3.org/2000/svg"
 width="300.000000pt" height="300.000000pt" viewBox="0 0 300.000000 300.000000"
 preserveAspectRatio="xMidYMid meet">
<metadata>
Created by potrace 1.10, written by Peter Selinger 2001-2011
</metadata>
<g transform="translate(0.000000,300.000000) scale(0.100000,-0.100000)"
fill="#000000" stroke="none">
<path d="M1371 2820 l-132 -150 21 -30 c50 -70 109 -239 110 -314 0 -15 -4
-13 -22 10 -64 85 -202 200 -232 192 -13 -3 -166 -168 -166 -179 0 -3 24 -16
52 -30 81 -37 181 -141 222 -230 79 -171 107 -320 86 -460 -42 -291 -208 -429
-431 -359 -165 51 -322 224 -396 435 -26 75 -28 90 -27 240 0 145 3 168 27
249 53 171 147 353 242 471 25 30 41 55 36 55 -19 0 -175 -125 -254 -204 -308
-305 -465 -726 -427 -1141 33 -370 180 -678 446 -935 258 -250 565 -380 934
-396 520 -24 987 213 1247 631 98 158 170 346 210 550 27 139 25 407 -4 550
-59 288 -164 494 -356 692 -87 90 -304 269 -314 259 -3 -3 15 -29 40 -58 63
-74 152 -214 194 -304 85 -186 110 -416 64 -589 -111 -414 -479 -653 -703
-455 -91 80 -138 212 -138 388 0 167 39 321 109 429 45 69 138 157 198 186 24
12 43 25 43 30 0 13 -151 177 -162 177 -21 0 -137 -91 -193 -152 l-58 -63 6
51 c7 65 48 182 87 251 17 30 27 59 23 66 -5 9 -137 161 -242 280 -4 4 -67
-60 -140 -143z"/>
</g>
</svg>
