<?xml version="1.0" standalone="no"?>
<!DOCTYPE svg PUBLIC "-//W3C//DTD SVG 20010904//EN"
 "http://www.w3.org/TR/2001/REC-SVG-20010904/DTD/svg10.dtd">
<svg version="1.0" xmlns="http://www.w3.org/2000/svg"
 width="389.000000pt" height="389.000000pt" viewBox="0 0 389.000000 389.000000"
 preserveAspectRatio="xMidYMid meet">

<g transform="translate(0.000000,389.000000) scale(0.100000,-0.100000)"
fill="#000000" stroke="none">
<path d="M1985 3720 c-33 -4 -90 -20 -126 -38 -91 -41 -189 -69 -198 -54 -4 7
-12 8 -21 2 -23 -15 -62 -12 -75 6 -10 15 -14 14 -38 -7 -15 -13 -28 -35 -29
-49 -2 -16 -13 -30 -30 -39 -16 -7 -28 -20 -28 -27 0 -11 -7 -13 -27 -8 l-26
7 19 -26 c10 -15 22 -27 27 -27 4 0 7 -5 7 -11 0 -7 -10 -9 -25 -5 -37 9 -21
-21 21 -39 36 -15 44 -32 19 -41 -9 -4 -14 -11 -13 -18 1 -6 -4 -34 -11 -62
-10 -40 -10 -68 -1 -125 6 -41 16 -103 21 -139 12 -90 18 -110 31 -110 7 0 9
19 6 58 -3 31 -2 77 2 102 20 118 33 168 51 206 27 58 84 81 119 49 10 -9 35
-18 56 -22 46 -6 114 -33 114 -45 0 -4 8 -8 18 -8 20 -1 74 -79 64 -95 -14
-22 -7 -48 20 -76 16 -16 26 -34 23 -39 -4 -7 2 -9 19 -4 16 4 26 2 26 -5 0
-6 7 -11 16 -11 8 0 25 -8 38 -17 21 -16 22 -19 7 -45 -9 -15 -40 -40 -69 -55
-30 -15 -58 -36 -63 -45 -5 -10 -9 -57 -8 -105 2 -50 -3 -108 -11 -135 -10
-37 -11 -56 -2 -84 13 -43 7 -64 -19 -64 -25 0 -24 -26 1 -40 31 -17 24 -30
-17 -30 -21 0 -58 -9 -82 -20 -24 -11 -55 -20 -69 -20 -46 0 -92 -23 -97 -47
-3 -13 -7 -34 -10 -47 -3 -14 -1 -28 5 -31 13 -8 13 -45 -1 -45 -6 0 -8 -9 -3
-22 l6 -23 -21 24 c-11 13 -35 60 -53 104 -30 74 -33 78 -36 47 -2 -18 1 -37
7 -43 6 -6 11 -18 11 -26 0 -8 9 -33 19 -55 10 -23 24 -66 31 -96 13 -56 57
-150 71 -150 4 0 17 -16 30 -36 27 -45 32 -42 -136 -95 -152 -48 -209 -68
-325 -114 -47 -18 -112 -41 -145 -51 -51 -15 -71 -29 -136 -93 -113 -113 -141
-171 -174 -361 -15 -85 -31 -186 -36 -223 -5 -38 -13 -85 -18 -105 -5 -20 -19
-100 -32 -176 l-22 -140 47 -43 c159 -144 365 -264 601 -350 110 -41 174 -58
335 -90 120 -23 488 -23 615 1 156 29 265 59 342 92 17 8 36 14 42 14 6 0 19
4 29 10 9 5 52 26 95 45 315 144 612 412 800 721 54 89 112 207 138 277 11 30
11 42 1 57 -7 11 -26 46 -43 78 -21 42 -61 87 -135 157 -89 82 -126 109 -232
165 -70 37 -151 84 -181 104 -29 20 -65 39 -80 42 -14 4 -34 13 -43 22 -10 8
-24 12 -32 9 -8 -3 -26 3 -41 14 -20 16 -34 19 -64 14 -33 -5 -50 -1 -100 26
-81 43 -165 110 -201 160 -25 36 -28 47 -24 92 3 29 10 73 15 98 6 25 10 64
11 86 0 33 5 43 24 52 14 6 24 19 24 31 0 12 20 63 44 113 35 72 47 111 56
181 16 119 10 160 -30 196 l-31 28 10 113 c10 119 5 161 -34 294 -19 64 -27
77 -107 167 -116 132 -333 209 -523 188z m-221 -1432 c-9 -14 -23 2 -17 18 4
12 8 13 14 3 4 -7 5 -17 3 -21z m136 12 c0 -5 -15 -10 -32 -10 -22 0 -29 -3
-20 -9 10 -6 6 -10 -15 -16 l-28 -7 43 -19 c23 -10 42 -25 42 -33 0 -7 7 -17
16 -20 19 -7 9 -26 -14 -26 -9 0 -25 -7 -35 -14 -17 -13 -16 -15 9 -45 23 -28
25 -35 15 -58 -11 -24 -14 -25 -68 -18 -50 6 -62 12 -95 48 -20 23 -37 45 -38
50 0 4 -8 7 -17 8 -11 0 -13 3 -5 6 6 2 12 14 12 25 0 27 49 88 71 88 10 0 22
6 26 14 19 34 133 65 133 36z m-163 -462 c13 -12 23 -27 23 -35 0 -7 5 -13 10
-13 6 0 21 -9 33 -20 42 -40 105 -67 203 -89 92 -21 139 -31 157 -36 4 -2 17
-4 30 -5 17 -2 18 -3 5 -7 -26 -6 -22 -23 5 -23 21 -1 22 -1 3 -15 -11 -8 -28
-15 -39 -15 -27 0 -12 -17 22 -23 21 -5 34 -16 47 -42 18 -38 34 -54 34 -34 0
7 3 9 7 6 3 -4 16 1 27 12 27 25 59 30 63 11 2 -10 -14 -24 -44 -39 -27 -13
-64 -32 -83 -42 -88 -44 -163 -61 -275 -63 -101 -1 -115 1 -165 26 -86 42
-108 71 -136 179 -37 143 -32 210 19 267 25 27 25 27 54 0z m528 -1338 c3 -5
1 -10 -4 -10 -6 0 -17 -15 -25 -32 -10 -22 -15 -27 -15 -14 -1 12 -6 16 -16
12 -19 -7 -19 1 1 21 13 13 13 17 2 24 -9 6 -2 9 19 9 17 0 35 -4 38 -10z"/>
<path d="M1547 2892 c-15 -9 -26 -21 -24 -26 4 -11 89 -36 125 -36 26 0 31
-20 5 -20 -23 -1 -70 -36 -61 -46 4 -4 16 3 26 16 26 32 63 20 56 -18 -3 -17
2 -36 14 -51 22 -28 52 -25 95 10 25 19 27 25 24 85 -2 35 -7 67 -10 70 -9 9
-144 33 -187 33 -19 0 -47 -7 -63 -17z"/>
<path d="M1577 2813 c-10 -9 -9 -23 2 -23 5 0 11 7 15 15 5 15 -5 20 -17 8z"/>
<path d="M1790 2450 c0 -5 7 -10 15 -10 8 0 15 5 15 10 0 6 -7 10 -15 10 -8 0
-15 -4 -15 -10z"/>
</g>
</svg>
