<?xml version="1.0" standalone="no"?>
<!DOCTYPE svg PUBLIC "-//W3C//DTD SVG 20010904//EN"
 "http://www.w3.org/TR/2001/REC-SVG-20010904/DTD/svg10.dtd">
<svg version="1.0" xmlns="http://www.w3.org/2000/svg"
 width="512.000000pt" height="512.000000pt" viewBox="0 0 512.000000 512.000000"
 preserveAspectRatio="xMidYMid meet">

<g transform="translate(0.000000,512.000000) scale(0.100000,-0.100000)"
fill="#000000" stroke="none">
<path d="M2018 3032 l-488 -487 0 -46 c0 -61 33 -110 84 -127 78 -25 76 -27
528 425 l418 418 418 -418 c452 -452 450 -450 528 -425 51 17 84 66 84 127 l0
46 -488 487 -487 488 -55 0 -55 0 -487 -488z"/>
<path d="M2525 2749 c-20 -6 -183 -162 -512 -491 l-483 -483 0 -43 c0 -54 22
-97 60 -117 34 -18 92 -20 123 -4 12 6 208 196 435 423 l412 411 413 -411
c226 -227 422 -417 434 -423 31 -16 89 -14 123 4 38 20 60 63 60 117 l0 43
-482 482 c-266 266 -492 486 -503 489 -40 11 -51 12 -80 3z"/>
</g>
</svg>
