<?xml version="1.0" standalone="no"?>
<!DOCTYPE svg PUBLIC "-//W3C//DTD SVG 20010904//EN"
 "http://www.w3.org/TR/2001/REC-SVG-20010904/DTD/svg10.dtd">
<svg version="1.0" xmlns="http://www.w3.org/2000/svg"
 width="512.000000pt" height="512.000000pt" viewBox="0 0 512.000000 512.000000"
 preserveAspectRatio="xMidYMid meet">

<g transform="translate(0.000000,512.000000) scale(0.100000,-0.100000)"
fill="#000000" stroke="none">
<path d="M1588 3504 c-36 -19 -58 -63 -58 -116 l0 -43 483 -482 c358 -359 490
-486 514 -492 69 -19 73 -17 581 492 l482 482 0 43 c0 54 -22 97 -60 117 -34
18 -92 20 -123 4 -12 -6 -208 -196 -434 -423 l-413 -411 -412 411 c-227 227
-423 417 -435 423 -30 15 -93 13 -125 -5z"/>
<path d="M1610 2747 c-47 -17 -80 -68 -80 -126 l0 -46 488 -487 487 -488 55 0
55 0 487 488 488 487 0 46 c0 61 -33 110 -84 127 -78 25 -76 27 -528 -425
l-418 -418 -423 423 c-232 232 -429 422 -437 422 -8 0 -24 2 -35 5 -11 2 -36
-1 -55 -8z"/>
</g>
</svg>
